# xmcd
#
# Track frame offsets: 
#        150
#        16698
#        41700
#        54928
#        70571
#        83794
#        107918
#        129279
#        146929
#
# Disc length: 2227 seconds
#
# Revision: 3
# Processed by: cddbd v1.5.2PL0 Copyright (c) Steve Scherf et al.
# Submitted via: ExactAudioCopy v0.95b4
#
DISCID=7008b109
DTITLE=James Booker - The New Orleans Piano Wizard "Live!"
DYEAR=1977
DGENRE=NOLA
TTITLE0=On the Sunny Side of the Street
TTITLE1=Black Night
TTITLE2=Keep on Gwine
TTITLE3=Come Rain or Come Shine
TTITLE4=Something Stupid
TTITLE5=Please Send Me Someone to Love
TTITLE6=Tell Me How Do You Feel?
TTITLE7=Let Them Talk
TTITLE8=Come Into My House
EXTD=YEAR: 1986 ID3G: 8
EXTT0=
EXTT1=
EXTT2=
EXTT3=
EXTT4=
EXTT5=
EXTT6=
EXTT7=
EXTT8=
PLAYORDER=
